<?xml version="1.0" encoding="UTF-8" standalone="no"?>
<svg
   viewBox="0 0 332.89 143"
   version="1.1"
   id="svg20"
   sodipodi:docname="logo-bca (cópia).svg"
   inkscape:version="1.1.2 (0a00cf5339, 2022-02-04)"
   xmlns:inkscape="http://www.inkscape.org/namespaces/inkscape"
   xmlns:sodipodi="http://sodipodi.sourceforge.net/DTD/sodipodi-0.dtd"
   xmlns="http://www.w3.org/2000/svg"
   xmlns:svg="http://www.w3.org/2000/svg"
   xmlns:rdf="http://www.w3.org/1999/02/22-rdf-syntax-ns#"
   xmlns:cc="http://creativecommons.org/ns#"
   xmlns:dc="http://purl.org/dc/elements/1.1/">
  <sodipodi:namedview
     id="namedview22"
     pagecolor="#ffffff"
     bordercolor="#666666"
     borderopacity="1.0"
     inkscape:pageshadow="2"
     inkscape:pageopacity="0.0"
     inkscape:pagecheckerboard="0"
     showgrid="false"
     inkscape:zoom="4.1575294"
     inkscape:cx="190.37749"
     inkscape:cy="119.90294"
     inkscape:window-width="1920"
     inkscape:window-height="1015"
     inkscape:window-x="0"
     inkscape:window-y="0"
     inkscape:window-maximized="1"
     inkscape:current-layer="Camada_1-2"
     showguides="true"
     inkscape:guide-bbox="true">
    <sodipodi:guide
       position="201.71321,97.078777"
       orientation="0,-1"
       id="guide44389" />
    <sodipodi:guide
       position="171.77938,43.844175"
       orientation="0,-1"
       id="guide44391" />
  </sodipodi:namedview>
  <defs
     id="defs4">
    <style
       id="style2">.cls-1,.cls-3{fill:#fff;}.cls-2{fill:#110c79;}.cls-3{font-size:89.62px;font-family:ArialMT, Arial;}</style>
  </defs>
  <title
     id="title6">logo-bca</title>
  <g
     id="Camada_2"
     data-name="Camada 2">
    <g
       id="Camada_1-2"
       data-name="Camada 1">
      <polygon
         class="cls-1"
         points="332.89,0 310.27,143 95.89,143 118.5,0 "
         id="polygon8"
         transform="matrix(0.9601792,0,0,0.91801758,14.008432,7.219974)" />
      <text
         class="cls-3"
         id="text16"
         x="-4.1092882"
         y="98.544174"
         transform="scale(0.94726697,1.0556686)"
         style="font-size:85.3333px;stroke-width:0.778363">RD</text>
      <g
         id="g15939"
         transform="matrix(0.86003936,0,0,0.82921785,30.235436,15.515345)">
        <path
           class="cls-2"
           d="m 116,36.75 h 25.64 a 74.12,74.12 0 0 1 11.36,0.63 16.7,16.7 0 0 1 6.7,2.62 16.47,16.47 0 0 1 4.92,5.36 14.52,14.52 0 0 1 2,7.5 15.21,15.21 0 0 1 -9,13.92 16.88,16.88 0 0 1 9,5.82 15.45,15.45 0 0 1 3.15,9.67 19.06,19.06 0 0 1 -2,8.51 17.14,17.14 0 0 1 -5.56,6.61 18.34,18.34 0 0 1 -8.69,3 q -3.24,0.35 -15.62,0.44 H 116 Z m 13,10.68 v 14.83 h 8.49 q 7.57,0 9.41,-0.22 a 8.56,8.56 0 0 0 5.23,-2.3 6.77,6.77 0 0 0 1.9,-5 7,7 0 0 0 -1.64,-4.83 7.43,7.43 0 0 0 -4.88,-2.25 q -1.93,-0.22 -11.07,-0.22 z m 0,25.51 v 17.15 h 12 a 58.63,58.63 0 0 0 8.88,-0.39 8,8 0 0 0 4.7,-2.56 7.88,7.88 0 0 0 1.82,-5.45 8.37,8.37 0 0 0 -1.4,-4.9 7.92,7.92 0 0 0 -4,-2.93 q -2.65,-0.92 -11.49,-0.92 z"
           id="path10"
           style="fill:#000080" />
        <path
           class="cls-2"
           d="m 258.0046,76.684177 12.06265,3.913666 q -2.77556,10.273374 -9.22946,15.263298 -6.4539,4.989929 -16.32683,4.989929 -12.27393,0 -20.16844,-8.54158 -7.8945,-8.541577 -7.94252,-23.374372 0,-15.654665 7.94252,-24.343005 7.94253,-8.688338 20.88874,-8.66877 11.30393,0 18.36289,6.848916 4.20656,4.021291 6.30023,11.555099 l -12.31235,2.993955 A 12.725323,12.96402 0 0 0 244.5974,46.79355 14.012262,14.275097 0 0 0 233.48555,51.803044 q -4.26418,5.009493 -4.26418,16.222146 0,11.897546 4.20655,16.955959 a 13.64731,13.9033 0 0 0 10.92937,5.048629 12.485223,12.719416 0 0 0 8.52838,-3.209206 q 3.57269,-3.248343 5.11893,-10.136395 z"
           id="path12"
           style="fill:#000080;stroke-width:0.969367" />
        <path
           class="cls-2"
           d="m 328.91453,100.89 h -14.09 l -5.6,-14.57 h -25.64 l -5.29,14.57 h -13.74 l 25,-64.15 h 13.7 z m -23.84,-25.38 -8.84,-23.8 -8.66,23.8 z"
           id="path14"
           style="fill:#000080" />
        <text
           xml:space="preserve"
           style="font-style:normal;font-weight:normal;font-size:81.8474px;line-height:1.25;font-family:sans-serif;fill:#000080;fill-opacity:1;stroke:none;stroke-width:2.04619"
           x="172.95926"
           y="95.351448"
           id="text12638"
           transform="scale(0.95320009,1.0490977)"><tspan
             sodipodi:role="line"
             id="tspan12636"
             x="172.95926"
             y="95.351448"
             style="font-weight:bold;fill:#000080;stroke-width:2.04619">S</tspan></text>
      </g>
    </g>
  </g>
  <metadata
     id="metadata15860">
    <rdf:RDF>
      <cc:Work
         rdf:about="">
        <dc:title>logo-bca</dc:title>
      </cc:Work>
    </rdf:RDF>
  </metadata>
</svg>
